<svg width="220" height="159" viewBox="0 0 220 159" fill="none" xmlns="http://www.w3.org/2000/svg">
<path d="M11 134.475C13.1 134.475 15.3 134.575 17.4 134.475C21.4 134.175 25.4 133.375 29.3 132.375C37 130.275 44.2 126.675 50.5 121.775C52.3 120.375 54.1 118.875 55.8 117.275C59.4 113.675 62.5 109.575 65 105.175C67.2 101.275 68.8 97.075 70 92.775C70.1 92.475 70.1 92.075 70.2 91.775H66.3C62.4 91.775 58.4 91.775 54.5 91.775C51.2 91.775 48 91.375 44.8 90.675C44.5 90.575 44.2 90.475 43.9 90.475C43.7 90.375 43.6 90.275 43.5 90.175C44.4 88.175 45.2 86.275 46 84.275L52.1 70.175C52.3 69.475 52.6 68.875 53 68.275C53.4 67.875 54 67.675 54.6 67.675C59.5 67.575 64.3 67.675 69.2 67.675H70.5C70.3 66.875 70.3 66.275 70.1 65.575C68.3 58.775 65.2 52.475 60.9 46.975C58.8 44.275 56.5 41.775 54 39.375C50.9 36.475 47.5 33.975 43.7 31.875C39.8 29.675 35.7 27.875 31.5 26.475C28 25.375 24.4 24.575 20.7 24.075C17.8 23.775 15 23.675 12.1 23.475C11.4 23.475 10.7 23.375 10 23.275C9.7 23.175 9.5 22.975 9.4 22.675C8.4 20.375 7.4 18.175 6.4 15.875C5.2 13.175 4.1 10.475 2.9 7.875C2 5.675 1 3.575 0 1.275C0.7 1.075 1.4 0.875 2.1 0.675C6.5 0.0750003 11 -0.125 15.5 0.0749999C22.6 0.275 29.7 1.375 36.7 3.175C41.1 4.375 45.5 5.875 49.7 7.675C55.6 10.175 61.2 13.275 66.4 16.975C68.7 18.675 71 20.475 73.2 22.275C74.2 23.075 75.2 23.975 76.2 24.875C81.2 29.675 85.6 35.175 89.3 41.075C93 46.975 95.7 53.375 97.5 60.075C98.1 62.275 98.5 64.575 99 66.775C99.1 67.075 99.4 67.375 99.8 67.375C106.5 67.375 113.3 67.375 120.1 67.375C120.5 65.775 120.8 64.175 121.1 62.575C122.3 57.875 123.9 53.375 125.9 49.075C127.5 45.475 129.5 41.975 131.8 38.775C133.9 35.875 136.1 32.975 138.5 30.275C140.3 28.175 142.2 26.175 144.2 24.375C148.4 20.575 152.9 17.175 157.8 14.175C162.8 11.075 168 8.575 173.5 6.575C177.3 5.275 181.1 4.075 184.9 3.075C187.8 2.375 190.6 1.875 193.6 1.475C196 1.075 198.5 0.875 201 0.675C202.6 0.575 204.1 0.475 205.7 0.475C208.1 0.475 210.4 0.375 212.7 0.475C215 0.575 217.3 1.075 219.6 1.475C219.7 1.475 219.7 1.575 219.9 1.775L218.2 5.775C216.4 9.975 214.6 14.175 212.7 18.475C212 19.975 211.3 21.475 210.7 23.075C210.3 24.075 209.3 23.675 208.6 23.875C208 23.975 207.5 23.975 206.9 23.875C200.6 23.975 194.4 24.875 188.4 26.575C184.6 27.675 180.9 29.075 177.4 30.775C173.1 32.875 169.1 35.475 165.4 38.575C163.9 39.875 162.2 41.175 160.8 42.675C157.2 46.275 154.1 50.375 151.6 54.875C149.6 58.575 148 62.475 146.8 66.575C146.7 66.875 146.7 67.275 146.6 67.575H147.7C152.9 67.575 158.2 67.475 163.4 67.575C166.5 67.575 169.6 68.075 172.6 69.075C172.7 69.175 172.8 69.175 172.9 69.275L170 75.875C168 80.575 165.9 85.275 163.9 90.075C163.3 91.475 162.9 91.775 161.3 91.775H146.7C147.1 93.175 147.4 94.375 147.8 95.575C149.2 99.775 151.2 103.775 153.7 107.475C155.2 109.675 156.8 111.675 158.5 113.675C159.5 114.875 160.6 116.075 161.7 117.075C165.4 120.675 169.6 123.775 174.1 126.275C177.9 128.475 182 130.275 186.2 131.675C190.2 133.075 194.4 133.975 198.7 134.375C201.3 134.575 204 134.775 206.6 134.975C207.6 135.075 208.6 135.075 209.6 135.175C209.8 135.275 210 135.375 210.1 135.575C211.8 139.575 213.5 143.575 215.3 147.575C216.7 150.775 218.1 153.975 219.6 157.375C218.2 157.675 216.9 157.975 215.5 158.075C212.1 158.275 208.6 158.475 205.2 158.475C202.1 158.475 199 158.175 196 157.775C191.9 157.175 187.7 156.475 183.6 155.575C178.7 154.375 173.9 152.775 169.2 150.775C163.6 148.375 158.4 145.475 153.4 141.975C150.8 140.075 148.3 138.075 145.8 136.075C144.2 134.775 142.6 133.275 141.2 131.775C138 128.475 135 124.975 132.4 121.175C129.9 117.575 127.7 113.775 125.8 109.775C123.5 104.975 121.9 99.875 120.8 94.675C120.6 94.175 120.5 93.575 120.4 93.075C120.4 92.075 119.9 91.875 119 91.875C112.6 91.875 106.3 91.875 99.9 91.875H98.8C97.8 97.275 96.2 102.575 94 107.675C92.2 111.975 90 116.075 87.3 119.875C85.2 122.775 83 125.675 80.6 128.375C78.9 130.475 77 132.375 75 134.175C71.9 136.875 68.6 139.375 65.3 141.875C61.3 144.675 57.1 147.175 52.7 149.175C47.4 151.675 41.9 153.675 36.3 155.075C33.1 155.875 29.9 156.475 26.7 156.975C23.6 157.475 20.5 157.775 17.4 158.075C15.6 158.175 13.8 158.175 12.1 158.075C9.5 158.075 6.9 157.975 4.4 157.875C3.5 157.775 2.6 157.675 1.7 157.475C1.2 157.375 1 157.175 1.3 156.575C3.3 151.975 5.4 147.375 7.4 142.775C8.6 139.975 9.7 137.375 11 134.475Z" fill="#5C37F1"/>
</svg>
